<svg xmlns="http://www.w3.org/2000/svg" viewBox="0 0 32 32">
  <rect width="32" height="32" rx="8" fill="#4f46e5"/>
  <path d="M9 20.5l1.2-5.2A2 2 0 0 1 12.1 13.7h7.8a2 2 0 0 1 1.9 1.6L23 20.5M9 20.5h14M9 20.5v2.2a1 1 0 0 0 1 1h1.2a1 1 0 0 0 1-1v-1M23 20.5v2.2a1 1 0 0 1-1 1h-1.2a1 1 0 0 1-1-1v-1" fill="none" stroke="#fff" stroke-width="1.6" stroke-linecap="round" stroke-linejoin="round"/>
  <circle cx="11.5" cy="20.5" r="1.4" fill="#fff"/>
  <circle cx="20.5" cy="20.5" r="1.4" fill="#fff"/>
</svg>
